<svg xmlns="http://www.w3.org/2000/svg" viewBox="0 0 704 876" width="704" height="876" role="img">
  <defs>
  <filter id="g" x="0" y="0" width="100%" height="100%">
    <feTurbulence type="fractalNoise" baseFrequency="0.9" numOctaves="3" stitchTiles="stitch"/>
    <feColorMatrix type="saturate" values="0"/>
    <feComponentTransfer><feFuncA type="linear" slope="0.055"/></feComponentTransfer>
  </filter>
    <linearGradient id="tsky" x1="0" y1="0" x2="0" y2="1"><stop offset="0" stop-color="#EFE8DC"/><stop offset="0.55" stop-color="#E2D6C3"/><stop offset="1" stop-color="#CDBBA1"/></linearGradient>
    <linearGradient id="robe" x1="0" y1="0" x2="0" y2="1"><stop offset="0" stop-color="#584668"/><stop offset="1" stop-color="#3A2E46"/></linearGradient>
    <linearGradient id="tglow" x1="0" y1="0" x2="0" y2="1"><stop offset="0" stop-color="rgba(255,236,205,.85)"/><stop offset="1" stop-color="rgba(255,236,205,0)"/></linearGradient>
  </defs>
  <rect width="704" height="876" fill="url(#tsky)"/>
  <ellipse cx="352.0" cy="297.84000000000003" rx="436.48" ry="297.84000000000003" fill="url(#tglow)"/>
<g fill="#9C8B76" opacity="0.22"><circle cx="14.08" cy="535.6302000000001" r="18.790200000000002"/><path d="M-30.596000000000004 648.24 Q-30.596000000000004 561.516 14.08 558.888 Q58.756 561.516 58.756 648.24 Z"/></g><g fill="#9C8B76" opacity="0.22"><path d="M-16.4705 522.30624 L14.08 510.08604 L44.630500000000005 522.30624 L14.08 534.52644 Z"/><path d="M-1.293800000000001 527.03664 L-1.293800000000001 541.03074 Q14.08 550.88574 29.4538 541.03074 L29.4538 527.03664 Z"/><rect x="40.0972" y="521.32074" width="1.7739" height="18.7245" rx="0.88695"/></g>
<g fill="#9C8B76" opacity="0.22"><circle cx="81.664" cy="535.6302000000001" r="18.790200000000002"/><path d="M36.988 648.24 Q36.988 561.516 81.664 558.888 Q126.34 561.516 126.34 648.24 Z"/></g><g fill="#9C8B76" opacity="0.22"><path d="M51.1135 522.30624 L81.664 510.08604 L112.2145 522.30624 L81.664 534.52644 Z"/><path d="M66.2902 527.03664 L66.2902 541.03074 Q81.664 550.88574 97.0378 541.03074 L97.0378 527.03664 Z"/><rect x="107.6812" y="521.32074" width="1.7739" height="18.7245" rx="0.88695"/></g>
<g fill="#9C8B76" opacity="0.22"><circle cx="149.248" cy="535.6302000000001" r="18.790200000000002"/><path d="M104.57199999999999 648.24 Q104.57199999999999 561.516 149.248 558.888 Q193.92399999999998 561.516 193.92399999999998 648.24 Z"/></g><g fill="#9C8B76" opacity="0.22"><path d="M118.69749999999999 522.30624 L149.248 510.08604 L179.7985 522.30624 L149.248 534.52644 Z"/><path d="M133.8742 527.03664 L133.8742 541.03074 Q149.248 550.88574 164.62179999999998 541.03074 L164.62179999999998 527.03664 Z"/><rect x="175.2652" y="521.32074" width="1.7739" height="18.7245" rx="0.88695"/></g>
<g fill="#9C8B76" opacity="0.22"><circle cx="216.83200000000005" cy="535.6302000000001" r="18.790200000000002"/><path d="M172.15600000000006 648.24 Q172.15600000000006 561.516 216.83200000000005 558.888 Q261.50800000000004 561.516 261.50800000000004 648.24 Z"/></g><g fill="#9C8B76" opacity="0.22"><path d="M186.28150000000005 522.30624 L216.83200000000005 510.08604 L247.38250000000005 522.30624 L216.83200000000005 534.52644 Z"/><path d="M201.45820000000006 527.03664 L201.45820000000006 541.03074 Q216.83200000000005 550.88574 232.20580000000004 541.03074 L232.20580000000004 527.03664 Z"/><rect x="242.84920000000005" y="521.32074" width="1.7739" height="18.7245" rx="0.88695"/></g>
<g fill="#9C8B76" opacity="0.22"><circle cx="284.416" cy="535.6302000000001" r="18.790200000000002"/><path d="M239.74 648.24 Q239.74 561.516 284.416 558.888 Q329.092 561.516 329.092 648.24 Z"/></g><g fill="#9C8B76" opacity="0.22"><path d="M253.8655 522.30624 L284.416 510.08604 L314.9665 522.30624 L284.416 534.52644 Z"/><path d="M269.0422 527.03664 L269.0422 541.03074 Q284.416 550.88574 299.7898 541.03074 L299.7898 527.03664 Z"/><rect x="310.4332" y="521.32074" width="1.7739" height="18.7245" rx="0.88695"/></g>
<g fill="#9C8B76" opacity="0.22"><circle cx="352.0" cy="535.6302000000001" r="18.790200000000002"/><path d="M307.324 648.24 Q307.324 561.516 352.0 558.888 Q396.676 561.516 396.676 648.24 Z"/></g><g fill="#9C8B76" opacity="0.22"><path d="M321.4495 522.30624 L352.0 510.08604 L382.5505 522.30624 L352.0 534.52644 Z"/><path d="M336.6262 527.03664 L336.6262 541.03074 Q352.0 550.88574 367.3738 541.03074 L367.3738 527.03664 Z"/><rect x="378.0172" y="521.32074" width="1.7739" height="18.7245" rx="0.88695"/></g>
<g fill="#9C8B76" opacity="0.22"><circle cx="419.58400000000006" cy="535.6302000000001" r="18.790200000000002"/><path d="M374.9080000000001 648.24 Q374.9080000000001 561.516 419.58400000000006 558.888 Q464.26000000000005 561.516 464.26000000000005 648.24 Z"/></g><g fill="#9C8B76" opacity="0.22"><path d="M389.03350000000006 522.30624 L419.58400000000006 510.08604 L450.13450000000006 522.30624 L419.58400000000006 534.52644 Z"/><path d="M404.21020000000004 527.03664 L404.21020000000004 541.03074 Q419.58400000000006 550.88574 434.9578000000001 541.03074 L434.9578000000001 527.03664 Z"/><rect x="445.60120000000006" y="521.32074" width="1.7739" height="18.7245" rx="0.88695"/></g>
<g fill="#9C8B76" opacity="0.22"><circle cx="487.16800000000006" cy="535.6302000000001" r="18.790200000000002"/><path d="M442.4920000000001 648.24 Q442.4920000000001 561.516 487.16800000000006 558.888 Q531.844 561.516 531.844 648.24 Z"/></g><g fill="#9C8B76" opacity="0.22"><path d="M456.61750000000006 522.30624 L487.16800000000006 510.08604 L517.7185000000001 522.30624 L487.16800000000006 534.52644 Z"/><path d="M471.79420000000005 527.03664 L471.79420000000005 541.03074 Q487.16800000000006 550.88574 502.5418000000001 541.03074 L502.5418000000001 527.03664 Z"/><rect x="513.1852000000001" y="521.32074" width="1.7739" height="18.7245" rx="0.88695"/></g>
<g fill="#9C8B76" opacity="0.22"><circle cx="554.7520000000001" cy="535.6302000000001" r="18.790200000000002"/><path d="M510.0760000000001 648.24 Q510.0760000000001 561.516 554.7520000000001 558.888 Q599.4280000000001 561.516 599.4280000000001 648.24 Z"/></g><g fill="#9C8B76" opacity="0.22"><path d="M524.2015 522.30624 L554.7520000000001 510.08604 L585.3025000000001 522.30624 L554.7520000000001 534.52644 Z"/><path d="M539.3782000000001 527.03664 L539.3782000000001 541.03074 Q554.7520000000001 550.88574 570.1258 541.03074 L570.1258 527.03664 Z"/><rect x="580.7692000000001" y="521.32074" width="1.7739" height="18.7245" rx="0.88695"/></g>
<g fill="#9C8B76" opacity="0.22"><circle cx="622.336" cy="535.6302000000001" r="18.790200000000002"/><path d="M577.66 648.24 Q577.66 561.516 622.336 558.888 Q667.0120000000001 561.516 667.0120000000001 648.24 Z"/></g><g fill="#9C8B76" opacity="0.22"><path d="M591.7855 522.30624 L622.336 510.08604 L652.8865000000001 522.30624 L622.336 534.52644 Z"/><path d="M606.9622 527.03664 L606.9622 541.03074 Q622.336 550.88574 637.7098 541.03074 L637.7098 527.03664 Z"/><rect x="648.3532" y="521.32074" width="1.7739" height="18.7245" rx="0.88695"/></g>
<g fill="#9C8B76" opacity="0.22"><circle cx="689.92" cy="535.6302000000001" r="18.790200000000002"/><path d="M645.2439999999999 648.24 Q645.2439999999999 561.516 689.92 558.888 Q734.596 561.516 734.596 648.24 Z"/></g><g fill="#9C8B76" opacity="0.22"><path d="M659.3694999999999 522.30624 L689.92 510.08604 L720.4705 522.30624 L689.92 534.52644 Z"/><path d="M674.5462 527.03664 L674.5462 541.03074 Q689.92 550.88574 705.2937999999999 541.03074 L705.2937999999999 527.03664 Z"/><rect x="715.9372" y="521.32074" width="1.7739" height="18.7245" rx="0.88695"/></g>
  <circle cx="154.88" cy="552.79104" r="38.544000000000004" fill="#7A5B42"/>
  <path d="M39.248000000000005 893.52 Q39.248000000000005 585.168 154.88 579.00096 Q270.512 585.168 270.512 893.52 Z" fill="url(#robe)"/>
  <path d="M112.48159999999999 600.5856 L100.91839999999999 893.52 L131.7536 893.52 L141.3896 600.5856 Z" fill="#6E4E93" opacity=".55"/>
  <path d="M197.2784 600.5856 L208.8416 893.52 L178.00639999999999 893.52 L168.3704 600.5856 Z" fill="#6E4E93" opacity=".55"/>
<g fill="#241B2E" opacity="1.0"><path d="M89.16247999999999 523.4976 L154.88 497.210592 L220.59752 523.4976 L154.88 549.784608 Z"/><path d="M121.809248 533.673216 L121.809248 563.7760800000001 Q154.88 584.97528 187.950752 563.7760800000001 L187.950752 533.673216 Z"/><rect x="210.845888" y="521.37768" width="3.815856" height="40.27848" rx="1.907928"/></g>
  <circle cx="352.0" cy="506.328" r="43.800000000000004" fill="#7A5B42"/>
  <path d="M220.6 893.52 Q220.6 543.12 352.0 536.112 Q483.4 543.12 483.4 893.52 Z" fill="url(#robe)"/>
  <path d="M303.82 560.64 L290.68 893.52 L325.72 893.52 L336.67 560.64 Z" fill="#6E4E93" opacity=".55"/>
  <path d="M400.18 560.64 L413.32 893.52 L378.28 893.52 L367.33 560.64 Z" fill="#6E4E93" opacity=".55"/>
<g fill="#241B2E" opacity="1.0"><path d="M277.321 473.03999999999996 L352.0 443.16839999999996 L426.679 473.03999999999996 L352.0 502.91159999999996 Z"/><path d="M314.4196 484.60319999999996 L314.4196 518.8109999999999 Q352.0 542.901 389.5804 518.8109999999999 L389.5804 484.60319999999996 Z"/><rect x="415.5976" y="470.631" width="4.3362" height="45.771" rx="2.1681"/></g>
  <circle cx="549.12" cy="552.79104" r="38.544000000000004" fill="#7A5B42"/>
  <path d="M433.488 893.52 Q433.488 585.168 549.12 579.00096 Q664.752 585.168 664.752 893.52 Z" fill="url(#robe)"/>
  <path d="M506.7216 600.5856 L495.15840000000003 893.52 L525.9936 893.52 L535.6296 600.5856 Z" fill="#6E4E93" opacity=".55"/>
  <path d="M591.5184 600.5856 L603.0816 893.52 L572.2464 893.52 L562.6104 600.5856 Z" fill="#6E4E93" opacity=".55"/>
<g fill="#241B2E" opacity="1.0"><path d="M483.40247999999997 523.4976 L549.12 497.210592 L614.83752 523.4976 L549.12 549.784608 Z"/><path d="M516.049248 533.673216 L516.049248 563.7760800000001 Q549.12 584.97528 582.190752 563.7760800000001 L582.190752 533.673216 Z"/><rect x="605.0858880000001" y="521.37768" width="3.815856" height="40.27848" rx="1.907928"/></g>
  <rect x="281.6" y="525.6" width="140.8" height="122.64000000000001" rx="3" fill="#F7F0E1" stroke="#C6A75A" stroke-width="2.5"/>
  <circle cx="352.0" cy="586.9200000000001" r="21.900000000000002" fill="#C6A75A" opacity=".7"/>
  <rect width="704" height="876" filter="url(#g)" opacity=".55"/>
</svg>
